<mxfile host="app.diagrams.net" modified="2023-08-17T13:21:01.240Z" agent="Mozilla/5.0 (Windows NT 10.0; Win64; x64; rv:109.0) Gecko/20100101 Firefox/115.0" version="21.6.8" etag="rMXeCpuV1SiP36KapHPy" type="github">
  <diagram name="PÃ¡gina-1" id="3IkKrNwdeZddzWNutqW2">
    <mxGraphModel>
      <root>
        <mxCell id="0" />
        <mxCell id="1" parent="0" />
      </root>
    </mxGraphModel>
  </diagram>
</mxfile>
